<svg width="600" height="400" xmlns="http://www.w3.org/2000/svg" viewBox="0 0 600 400">
  <defs>
    <linearGradient id="interfaceGrad" x1="0%" y1="0%" x2="100%" y2="100%">
      <stop offset="0%" style="stop-color:#FF6B35"/>
      <stop offset="100%" style="stop-color:#FF9933"/>
    </linearGradient>
  </defs>
  
  <!-- Background -->
  <rect width="600" height="400" fill="url(#interfaceGrad)" rx="20"/>
  
  <!-- Interface mockup -->
  <rect x="50" y="50" width="500" height="300" fill="rgba(255,255,255,0.9)" rx="15"/>
  
  <!-- Header -->
  <rect x="70" y="70" width="460" height="40" fill="#FF9933" rx="8"/>
  <text x="300" y="95" text-anchor="middle" fill="white" font-size="18" font-weight="bold">AI Tutor Interface</text>
  
  <!-- Chat bubbles -->
  <rect x="90" y="130" width="200" height="30" fill="#f0f0f0" rx="15"/>
  <text x="190" y="150" text-anchor="middle" fill="#333" font-size="12">How can I help you learn?</text>
  
  <rect x="310" y="170" width="220" height="30" fill="#FF9933" rx="15"/>
  <text x="420" y="190" text-anchor="middle" fill="white" font-size="12">Explain quantum physics</text>
  
  <rect x="90" y="210" width="250" height="40" fill="#f0f0f0" rx="15"/>
  <text x="215" y="235" text-anchor="middle" fill="#333" font-size="11">Let me break it down step by step...</text>
  
  <!-- Progress indicators -->
  <circle cx="100" cy="280" r="8" fill="#138808"/>
  <circle cx="130" cy="280" r="8" fill="#FF9933"/>
  <circle cx="160" cy="280" r="8" fill="#e0e0e0"/>
  
  <!-- AI brain icon -->
  <circle cx="480" cy="280" r="25" fill="#FF6B35"/>
  <path d="M465 275 Q480 265 495 275 Q490 285 480 290 Q470 285 465 275 Z" fill="white"/>
  <circle cx="475" cy="278" r="2" fill="#FF6B35"/>
  <circle cx="485" cy="278" r="2" fill="#FF6B35"/>
</svg>