<svg width="300" height="200" xmlns="http://www.w3.org/2000/svg" viewBox="0 0 300 200">
  <defs>
    <linearGradient id="analyticsGrad" x1="0%" y1="0%" x2="100%" y2="100%">
      <stop offset="0%" style="stop-color:#FF9933"/>
      <stop offset="100%" style="stop-color:#138808"/>
    </linearGradient>
  </defs>
  
  <!-- Background -->
  <rect width="300" height="200" fill="url(#analyticsGrad)" rx="15"/>
  
  <!-- Chart background -->
  <rect x="50" y="50" width="200" height="120" fill="rgba(255,255,255,0.9)" rx="8"/>
  
  <!-- Bar chart -->
  <rect x="70" y="120" width="20" height="30" fill="#FF9933"/>
  <rect x="100" y="100" width="20" height="50" fill="#FF6B35"/>
  <rect x="130" y="80" width="20" height="70" fill="#138808"/>
  <rect x="160" y="90" width="20" height="60" fill="#FF9933"/>
  <rect x="190" y="70" width="20" height="80" fill="#FF6B35"/>
  <rect x="220" y="110" width="20" height="40" fill="#138808"/>
  
  <!-- Trend line -->
  <path d="M80 135 L110 125 L140 115 L170 120 L200 110 L230 130" stroke="white" stroke-width="3" fill="none"/>
  
  <!-- Data points -->
  <circle cx="80" cy="135" r="4" fill="white"/>
  <circle cx="110" cy="125" r="4" fill="white"/>
  <circle cx="140" cy="115" r="4" fill="white"/>
  <circle cx="170" cy="120" r="4" fill="white"/>
  <circle cx="200" cy="110" r="4" fill="white"/>
  <circle cx="230" cy="130" r="4" fill="white"/>
  
  <!-- Axis lines -->
  <line x1="60" y1="160" x2="250" y2="160" stroke="#666" stroke-width="1"/>
  <line x1="60" y1="60" x2="60" y2="160" stroke="#666" stroke-width="1"/>
  
  <!-- Title -->
  <text x="150" y="30" text-anchor="middle" fill="white" font-size="16" font-weight="bold">Learning Analytics</text>
  <text x="150" y="185" text-anchor="middle" fill="white" font-size="12">Progress Tracking</text>
</svg>