<svg width="300" height="200" xmlns="http://www.w3.org/2000/svg" viewBox="0 0 300 200">
  <defs>
    <linearGradient id="wisdomGrad" x1="0%" y1="0%" x2="100%" y2="100%">
      <stop offset="0%" style="stop-color:#138808"/>
      <stop offset="100%" style="stop-color:#FF9933"/>
    </linearGradient>
  </defs>
  
  <!-- Background -->
  <rect width="300" height="200" fill="url(#wisdomGrad)" rx="15"/>
  
  <!-- Ancient scroll -->
  <rect x="80" y="60" width="140" height="80" fill="rgba(255,255,255,0.9)" rx="8"/>
  <rect x="75" y="55" width="150" height="90" fill="none" stroke="white" stroke-width="2" rx="10"/>
  
  <!-- Sanskrit text lines -->
  <line x1="90" y1="80" x2="210" y2="80" stroke="#FF9933" stroke-width="2"/>
  <line x1="90" y1="95" x2="190" y2="95" stroke="#FF9933" stroke-width="2"/>
  <line x1="90" y1="110" x2="200" y2="110" stroke="#FF9933" stroke-width="2"/>
  <line x1="90" y1="125" x2="180" y2="125" stroke="#FF9933" stroke-width="2"/>
  
  <!-- Om symbol -->
  <circle cx="150" cy="35" r="15" fill="white"/>
  <text x="150" y="42" text-anchor="middle" fill="#FF9933" font-size="18" font-weight="bold">ॐ</text>
  
  <!-- Lotus petals -->
  <ellipse cx="60" cy="170" rx="15" ry="8" fill="rgba(255,255,255,0.6)" transform="rotate(-30 60 170)"/>
  <ellipse cx="240" cy="170" rx="15" ry="8" fill="rgba(255,255,255,0.6)" transform="rotate(30 240 170)"/>
  <ellipse cx="60" cy="30" rx="15" ry="8" fill="rgba(255,255,255,0.6)" transform="rotate(30 60 30)"/>
  <ellipse cx="240" cy="30" rx="15" ry="8" fill="rgba(255,255,255,0.6)" transform="rotate(-30 240 30)"/>
  
  <!-- Title -->
  <text x="150" y="175" text-anchor="middle" fill="white" font-size="16" font-weight="bold">Ancient Wisdom</text>
</svg>