<svg width="60" height="60" viewBox="0 0 60 60" fill="none" xmlns="http://www.w3.org/2000/svg">
  <!-- Brahmastra Logo - Traditional Indian Design -->
  <defs>
    <linearGradient id="logoGradient" x1="0%" y1="0%" x2="100%" y2="100%">
      <stop offset="0%" style="stop-color:#FF9933;stop-opacity:1" />
      <stop offset="50%" style="stop-color:#FFD700;stop-opacity:1" />
      <stop offset="100%" style="stop-color:#138808;stop-opacity:1" />
    </linearGradient>
    <filter id="glow">
      <feGaussianBlur stdDeviation="2" result="coloredBlur"/>
      <feMerge> 
        <feMergeNode in="coloredBlur"/>
        <feMergeNode in="SourceGraphic"/>
      </feMerge>
    </filter>
  </defs>
  
  <!-- Outer Circle - Representing the Universe -->
  <circle cx="30" cy="30" r="28" fill="none" stroke="url(#logoGradient)" stroke-width="2" opacity="0.8"/>
  
  <!-- Inner Sacred Geometry -->
  <g filter="url(#glow)">
    <!-- Central Lotus Petals -->
    <path d="M30 10 L35 20 L30 25 L25 20 Z" fill="url(#logoGradient)" opacity="0.9"/>
    <path d="M50 30 L40 35 L35 30 L40 25 Z" fill="url(#logoGradient)" opacity="0.9"/>
    <path d="M30 50 L25 40 L30 35 L35 40 Z" fill="url(#logoGradient)" opacity="0.9"/>
    <path d="M10 30 L20 25 L25 30 L20 35 Z" fill="url(#logoGradient)" opacity="0.9"/>
    
    <!-- Diagonal Petals -->
    <path d="M42 18 L37 23 L32 18 L37 13 Z" fill="url(#logoGradient)" opacity="0.7"/>
    <path d="M42 42 L37 37 L42 32 L47 37 Z" fill="url(#logoGradient)" opacity="0.7"/>
    <path d="M18 42 L23 37 L28 42 L23 47 Z" fill="url(#logoGradient)" opacity="0.7"/>
    <path d="M18 18 L23 23 L18 28 L13 23 Z" fill="url(#logoGradient)" opacity="0.7"/>
  </g>
  
  <!-- Central Sacred Symbol -->
  <circle cx="30" cy="30" r="8" fill="url(#logoGradient)" opacity="0.9"/>
  <circle cx="30" cy="30" r="4" fill="#FFFFFF" opacity="0.9"/>
  
  <!-- Sanskrit-inspired decorative elements -->
  <g stroke="url(#logoGradient)" stroke-width="1" fill="none" opacity="0.6">
    <path d="M15 15 Q20 10 25 15"/>
    <path d="M35 15 Q40 10 45 15"/>
    <path d="M45 35 Q50 40 45 45"/>
    <path d="M25 45 Q20 50 15 45"/>
  </g>
  
  <!-- Outer decorative dots -->
  <circle cx="30" cy="5" r="1.5" fill="url(#logoGradient)" opacity="0.8"/>
  <circle cx="55" cy="30" r="1.5" fill="url(#logoGradient)" opacity="0.8"/>
  <circle cx="30" cy="55" r="1.5" fill="url(#logoGradient)" opacity="0.8"/>
  <circle cx="5" cy="30" r="1.5" fill="url(#logoGradient)" opacity="0.8"/>
</svg>