<svg width="60" height="60" xmlns="http://www.w3.org/2000/svg" viewBox="0 0 60 60">
  <defs>
    <linearGradient id="logoGrad" x1="0%" y1="0%" x2="100%" y2="100%">
      <stop offset="0%" style="stop-color:#FF9933"/>
      <stop offset="50%" style="stop-color:#FF6B35"/>
      <stop offset="100%" style="stop-color:#138808"/>
    </linearGradient>
    <filter id="glow">
      <feGaussianBlur stdDeviation="2" result="coloredBlur"/>
      <feMerge> 
        <feMergeNode in="coloredBlur"/>
        <feMergeNode in="SourceGraphic"/>
      </feMerge>
    </filter>
  </defs>
  
  <!-- Background circle -->
  <circle cx="30" cy="30" r="28" fill="url(#logoGrad)" filter="url(#glow)"/>
  
  <!-- Om symbol (à¥) stylized -->
  <g transform="translate(30,30)" fill="white">
    <!-- Main Om curves -->
    <path d="M-12,-8 Q-8,-12 -4,-8 Q0,-4 4,-8 Q8,-12 12,-8 Q8,-4 4,0 Q0,4 -4,0 Q-8,-4 -12,-8 Z" opacity="0.9"/>
    
    <!-- Central dot -->
    <circle cx="0" cy="-2" r="3" fill="white"/>
    
    <!-- Top curve -->
    <path d="M-6,-12 Q0,-16 6,-12" stroke="white" stroke-width="2" fill="none"/>
    
    <!-- Bottom elements -->
    <path d="M-8,4 Q0,8 8,4" stroke="white" stroke-width="2" fill="none"/>
    <circle cx="0" cy="8" r="2" fill="white"/>
  </g>
  
  <!-- Decorative elements -->
  <circle cx="15" cy="15" r="2" fill="rgba(255,255,255,0.3)"/>
  <circle cx="45" cy="15" r="2" fill="rgba(255,255,255,0.3)"/>
  <circle cx="15" cy="45" r="2" fill="rgba(255,255,255,0.3)"/>
  <circle cx="45" cy="45" r="2" fill="rgba(255,255,255,0.3)"/>
</svg>